<?xml version="1.0" standalone="no"?>
<svg xmlns="http://www.w3.org/2000/svg" viewBox="0 0 127.518 36" width="127.518" height="36"><g fill="#f1333f" color="#f1333f" transform="translate(0 6) scale(0.4444445)"><svg width="48.0" height="54.0" x="0.0" y="0.0" viewBox="0 0 48 54"><path fill="currentColor" fill-rule="evenodd" d="M45.692 20.235c-.178.534-.593 1.484-.712 1.662-.06.06-.178.178-.356 0-.534-.594-1.246-1.306-1.78-1.9-.119-.118-.178-.355-.06-.533.238-.475.475-1.128.653-1.602 0 0 0-.06.06-.06 0 0 .118-.178.296 0 2.018 2.196 2.018 2.196 1.9 2.433m-1.484 3.205l-.475.771c-.771 1.246-.771 1.246-1.068 1.068-.534-.593-1.246-1.305-1.78-1.899-.119-.118-.119-.356 0-.534.178-.296.415-.653.593-1.009.594-1.068.594-1.068.83-.83.594.652 1.247 1.246 1.781 1.899.178.118.237.296.119.534m-2.196 3.382c-.297.356-.653.83-.95 1.187-.652.771-.711.83-.949.593-.534-.593-1.246-1.305-1.78-1.899-.119-.118-.119-.356.06-.534l.474-.593c1.187-1.424 1.187-1.424 1.365-1.246.593.652 1.246 1.187 1.78 1.899.06.178.119.356 0 .593m-2.908 3.264c-2.076 1.899-2.076 1.899-2.373 1.661-.534-.593-1.246-1.305-1.78-1.899-.119-.178-.119-.356.059-.474.534-.475 1.305-1.068 1.78-1.603l.119-.118s.237-.178.475 0c.593.653 1.246 1.187 1.78 1.899.06.118.119.296-.06.534m-3.145 2.61l-.712.475c-1.008.713-1.008.713-1.246.475-.534-.593-1.246-1.305-1.72-1.899-.12-.118-.12-.296.059-.415l.771-.534c.89-.653.89-.653 1.128-.416.593.653 1.246 1.247 1.78 1.9 0 .059.118.237-.06.415m-2.907 1.958l-1.068.653c-.89.534-.89.593-1.128.356-.534-.594-1.246-1.306-1.72-1.9-.12-.118-.12-.296.059-.414l.593-.416c1.306-.83 1.306-.83 1.543-.593.593.652 1.246 1.246 1.78 1.958 0 0 .178.178-.06.356m-3.144 2.018c-.594.415-1.128.89-1.78 1.186 0 0-.238.12-.475-.059-.534-.593-1.246-1.305-1.721-1.899-.119-.119-.119-.297.06-.415 1.957-1.306 1.957-1.306 2.254-1.068.594.652 1.246 1.246 1.78 1.958-.059-.06.12.119-.118.297m-3.264 2.255l-.771.593c-1.187.89-1.187.89-1.425.653-.534-.594-1.246-1.306-1.72-1.9-.12-.177-.12-.355.059-.474l.89-.712c1.009-.771 1.009-.771 1.246-.534.593.653 1.246 1.246 1.78 1.958.119.06.119.238-.059.416m-3.145 2.432l-1.009.95c-.712.712-.771.712-.95.534-.533-.593-1.245-1.305-1.72-1.899-.119-.178-.119-.356 0-.475l.534-.474c1.246-1.187 1.246-1.187 1.543-.95.593.653 1.246 1.246 1.78 1.958 0 .06 0 .238-.178.356m-2.79 2.849c-.414.475-.949 1.127-1.305 1.661l-.059.06s-.178.178-.356 0c-.534-.594-1.246-1.365-1.72-1.9a.445.445 0 0 1 0-.533c1.483-1.958 1.483-1.958 1.72-1.662.593.653 1.246 1.246 1.78 1.958 0-.059.119.178-.06.416m-2.313 3.204l-.95 1.9s0 .058-.06.058c-.059.06-.177.179-.296 0-.534-.593-1.246-1.364-1.72-1.898-.12-.178-.179-.356-.06-.594.83-1.72.83-1.72.95-1.958.059-.06.177-.178.355-.06.594.653 1.247 1.247 1.78 1.959 0 .119.179.297 0 .593M14.124 22.55s-.237.118-.415-.06c-.534-.534-1.187-1.305-1.721-1.899-.119-.118-.06-.296.06-.415 1.957-1.306 1.957-1.306 2.195-1.068.593.652 1.246 1.187 1.72 1.899 0 0 .179.237-.059.415-.593.356-1.127.83-1.78 1.128M12.7 23.558l-.772.534c-1.186.89-1.186.89-1.424.653-.534-.593-1.187-1.305-1.72-1.899-.12-.118-.12-.296.059-.475l.89-.712c1.009-.771 1.009-.771 1.246-.534.593.653 1.246 1.187 1.72 1.9.12.118.238.355 0 .533m-3.085 2.433l-1.009.95c-.712.712-.771.712-.95.534-.533-.594-1.186-1.306-1.72-1.9a.361.361 0 0 1 0-.474l.534-.475c1.246-1.127 1.246-1.127 1.484-.89.593.653 1.246 1.187 1.72 1.9 0-.06.12.118-.059.355m-2.789 2.79c-.415.474-.89 1.127-1.305 1.66l-.06.06s-.178.178-.356 0c-.534-.593-1.187-1.305-1.72-1.899-.12-.118-.12-.356 0-.534 1.483-1.958 1.483-1.958 1.72-1.661.594.652 1.246 1.186 1.721 1.899.06 0 .178.237 0 .474M4.57 31.985c-.296.593-.653 1.305-.89 1.899 0 0 0 .059-.06.059-.059.06-.118.178-.296.06-.534-.594-1.187-1.306-1.72-1.9-.12-.178-.179-.356-.06-.593.771-1.72.771-1.72.95-1.958.059-.06.177-.178.355-.06.594.653 1.187 1.187 1.721 1.9 0 .118.119.296 0 .593m10.682-13.886l.593-.356c1.305-.83 1.305-.83 1.543-.593.593.652 1.246 1.186 1.72 1.898a.23.23 0 0 1-.059.356l-1.008.653c-.831.534-.89.534-1.128.356-.534-.534-1.187-1.305-1.72-1.899-.12-.178-.06-.296.059-.415m3.085-1.958l.772-.534c.89-.653.89-.653 1.127-.416.594.653 1.246 1.187 1.721 1.9.06.118.119.237-.06.355l-.711.475c-1.01.712-1.01.712-1.247.475-.534-.534-1.186-1.306-1.72-1.84-.06-.178 0-.297.118-.415m2.73-2.018c.534-.475 1.246-1.068 1.78-1.602l.119-.119s.237-.178.415 0c.594.653 1.246 1.187 1.721 1.9.06.058.119.296-.06.474-2.076 1.899-2.076 1.899-2.373 1.661a48.81 48.81 0 0 1-1.72-1.84c-.06-.118-.06-.296.118-.474m3.264-3.086l.474-.534c1.128-1.424 1.128-1.424 1.365-1.246.594.653 1.246 1.187 1.721 1.9.06.058.119.296 0 .533-.297.356-.653.83-.95 1.187-.652.771-.711.83-.949.593a48.81 48.81 0 0 1-1.72-1.84c-.06-.237-.06-.415.059-.593m2.551-3.382c.178-.297.416-.653.594-.95.593-1.068.593-1.068.83-.83.594.653 1.247 1.187 1.78 1.899.06.118.12.296.06.534l-.415.771c-.772 1.246-.772 1.246-1.01 1.068A48.81 48.81 0 0 1 27 8.307c-.237-.296-.237-.474-.119-.652m1.78-3.264c.179-.474.475-1.127.653-1.602 0 0 0-.06.06-.06 0 0 .118-.177.296 0 1.959 2.078 1.959 2.078 1.84 2.374-.237.534-.534 1.484-.653 1.662-.06.06-.178.178-.356 0-.534-.594-1.246-1.306-1.72-1.899a.462.462 0 0 1-.12-.475M46.168 18.93c-.06.06-.119.118-.297 0-.534-.594-1.246-1.306-1.78-1.9-.119-.118-.178-.355-.178-.474.06-.297.178-.712.237-1.009L32.103 2.967c-.118.593-.178.772-.178.83 0 .06-.118.12-.296 0a48.81 48.81 0 0 1-1.721-1.839c-.119-.118-.178-.356-.178-.474.059-.238.118-.475.178-.772L29.255 0c-.297 1.662-1.068 3.68-2.374 5.993-.771 1.306-1.424 2.255-2.67 3.798-1.958 2.255-3.323 3.442-5.697 5.163-1.483 1.009-1.483 1.009-3.204 2.077-3.383 2.136-4.035 2.551-6.112 4.035-1.484 1.127-1.9 1.484-3.383 2.789C2.79 26.941.95 29.433 0 34.002l.593.653.297-1.365c.06-.06.178-.119.237-.178.535.594 1.247 1.365 1.78 1.958.179.356.179.356-.177 2.018.83.89 1.899 2.136 2.73 3.026.415.475.949 1.068 1.364 1.543.83.89 1.9 2.136 2.73 3.027.83.89 1.899 2.136 2.73 3.085a74.252 74.252 0 0 1 2.076 2.374l.356-1.424c.06-.06.179-.119.238-.178.534.593 1.305 1.365 1.84 2.017.177.356.177.356-.238 2.018l.771.89c.89-3.68 2.137-6.409 5.994-10.207 1.424-1.246 1.661-1.483 3.382-2.848 2.137-1.602 2.79-2.018 6.112-4.154 1.959-1.246 2.137-1.365 3.264-2.136 1.78-1.246 3.383-2.433 5.756-5.222 1.009-1.246 1.662-2.077 2.73-3.798 1.483-2.551 2.314-4.628 2.61-6.35l-.77-.83c-.179.771-.238.95-.238 1.009"></path></svg></g><path fill="#353434" fill-rule="nonzero" d="M12.29 16.03L11.98 2.78L7.97 15.98L7.97 16.03L5.78 16.03L1.78 2.66L1.44 16.03L0 16.03L0.41 1.32L3.60 1.32L7.25 13.61L10.97 1.32L14.28 1.32L14.71 16.03L12.29 16.03ZM22.70 16.32Q19.80 16.32 18.66 14.65Q17.52 12.98 17.52 10.27L17.52 10.27Q17.52 7.54 18.66 5.88Q19.80 4.22 22.70 4.22L22.70 4.22Q25.58 4.22 26.74 5.89Q27.89 7.56 27.89 10.27L27.89 10.27Q27.89 16.32 22.70 16.32L22.70 16.32ZM22.70 15.12Q24.29 15.12 24.88 13.85Q25.46 12.58 25.46 10.27L25.46 10.27Q25.46 7.94 24.89 6.68Q24.31 5.42 22.70 5.42L22.70 5.42Q21.10 5.42 20.52 6.67Q19.94 7.92 19.94 10.27L19.94 10.27Q19.94 12.60 20.52 13.86Q21.10 15.12 22.70 15.12L22.70 15.12ZM38.42 4.51L39.82 4.51L35.81 16.03L33.14 16.03L29.21 4.51L31.63 4.51L34.99 14.81L38.42 4.51ZM43.20 3Q42.58 3 42.14 2.56Q41.71 2.11 41.71 1.51L41.71 1.51Q41.71 0.89 42.14 0.44Q42.58 0 43.20 0L43.20 0Q43.82 0 44.27 0.44Q44.71 0.89 44.71 1.51L44.71 1.51Q44.71 2.11 44.26 2.56Q43.80 3 43.20 3L43.20 3ZM44.35 4.51L44.35 16.03L41.98 16.03L41.98 4.51L44.35 4.51ZM57.31 10.42L49.87 10.42L49.87 10.46Q49.87 13.01 50.48 14.06Q51.10 15.12 52.58 15.12L52.58 15.12Q55.03 15.12 55.15 12.60L55.15 12.60L57.14 12.70Q56.98 14.38 55.92 15.35Q54.86 16.32 52.51 16.32L52.51 16.32Q49.80 16.32 48.62 14.82Q47.45 13.32 47.45 10.27L47.45 10.27Q47.45 7.54 48.56 5.88Q49.68 4.22 52.49 4.22L52.49 4.22Q55.20 4.22 56.26 5.87Q57.31 7.51 57.31 10.18L57.31 10.18L57.31 10.42ZM52.44 5.42Q51.17 5.42 50.59 6.36Q50.02 7.30 49.90 9.22L49.90 9.22L54.96 9.22Q54.89 7.34 54.32 6.38Q53.76 5.42 52.44 5.42L52.44 5.42ZM68.64 1.32L71.11 1.32L71.11 16.03L68.64 16.03L68.64 9.29L62.81 9.29L62.81 16.03L60.36 16.03L60.36 1.32L62.81 1.32L62.81 8.06L68.64 8.06L68.64 1.32ZM82.03 4.51L84.46 4.51L84.46 16.03L82.87 16.03L82.20 14.59Q80.59 16.32 78.43 16.32L78.43 16.32Q76.56 16.32 75.67 15.35Q74.78 14.38 74.78 12.60L74.78 12.60L74.78 4.51L77.21 4.51L77.21 12.36Q77.21 15.05 79.32 15.05L79.32 15.05Q80.88 15.05 82.03 13.54L82.03 13.54L82.03 4.51ZM93.55 4.22Q96.17 4.22 97.18 5.88Q98.18 7.54 98.18 10.27L98.18 10.27Q98.18 13.01 97.18 14.66Q96.17 16.32 93.55 16.32L93.55 16.32Q91.73 16.32 90.22 15.02L90.22 15.02L89.45 16.03L88.37 16.03L88.37 0.82L90.79 0.50L90.79 4.94Q92.16 4.22 93.55 4.22L93.55 4.22ZM92.98 14.95Q94.46 14.95 95.11 13.72Q95.76 12.48 95.76 10.27L95.76 10.27Q95.76 7.94 95.10 6.68Q94.44 5.42 92.95 5.42L92.95 5.42Q91.75 5.42 90.79 5.98L90.79 5.98L90.79 14.21Q91.70 14.95 92.98 14.95L92.98 14.95Z" transform="translate(29.334, 9.984)"></path></svg>